<?xml version="1.0" encoding="utf-8"?>
<!-- Generator: Adobe Illustrator 25.1.0, SVG Export Plug-In . SVG Version: 6.00 Build 0)  -->
<svg version="1.1" id="Layer_1" xmlns="http://www.w3.org/2000/svg" xmlns:xlink="http://www.w3.org/1999/xlink" x="0px" y="0px"
	 viewBox="0 0 349.5 77.4" style="enable-background:new 0 0 349.5 77.4;" xml:space="preserve">
<g>
	<path d="M23.9,38.8L6.3,40.9c2.1,0.5,4.6,0.8,7.1,0.8c5.3,0,9.3-1.2,12.1-3.1C25,38.7,24.4,38.7,23.9,38.8z M20.1,16.6
		c-5.1-1.9-7.3-2.8-7.3-4.8c0-1.8,1.8-3,5.1-3c4.1,0,7.1,1.1,8.8,1.9l2.3-8.6C26.4,0.9,23,0,18.1,0C7.9,0,1.9,5.5,1.9,12.7
		c0,6,4.5,9.8,11.3,12.2c4.6,1.6,6.4,2.7,6.4,4.7c0,2-1.8,3.3-5.5,3.3c-4,0-8-1.3-10.5-2.5l-2,8.9c0.9,0.5,2.1,1,3.7,1.4l18.6-2.4
		c0.9-0.1,1.8-0.2,2.7-0.4c2.8-2.4,4.1-5.6,4.1-9C30.7,23.2,27.4,19.3,20.1,16.6z"/>
	<path d="M49.1,36.3v4.8H60v-5.8C56.4,35.6,52.7,35.9,49.1,36.3z M73.1,34.3v6.8h10.8v-7.7C80.3,33.7,76.7,34,73.1,34.3z M73.1,0.7
		v14.9H60V0.7H49.1v34.7c3.6-0.4,7.2-0.8,10.9-1.1v-9.2h13.1v8c3.6-0.4,7.2-0.7,10.8-1V0.7H73.1z"/>
	<path d="M127.7,30.6c-1.4,1.6-3.2,2.5-5.4,2.5c-2,0-3.7-0.7-5-1.9c-4.1,0.3-8.2,0.5-12.4,0.8c3,5.8,8.8,9.7,16.9,9.7
		c9.1,0,15.7-4.4,18.6-11.8C136.2,30.2,132,30.4,127.7,30.6z M122.4,0c-12.4,0-20.1,9.4-20.1,21.1c0,3.3,0.6,6.5,1.8,9.3
		c3.9-0.3,7.8-0.6,11.7-0.9c-1.3-2.1-2-5-2-8.6c0-7.4,3.3-12.4,8.5-12.4c5.2,0,8.3,5.3,8.3,12.2c0,3-0.5,5.7-1.5,7.8
		c4-0.3,8-0.5,12.1-0.8c0.6-2.2,0.9-4.7,0.9-7.3C142.1,9.7,135.5,0,122.4,0z"/>
	<path d="M177.7,16.6c-5.1-1.9-7.3-2.8-7.3-4.8c0-1.8,1.8-3,5.1-3c4.1,0,7.1,1.1,8.8,1.9l2.3-8.6c-2.7-1.2-6.1-2.1-11-2.1
		c-10.2,0-16.2,5.5-16.2,12.7c0,6,4.5,9.8,11.3,12.2c1,0.3,1.8,0.6,2.5,1c4.8-0.3,9.5-0.6,14.3-0.8
		C186.4,21.3,183.2,18.6,177.7,16.6z M188.2,27.7c-3.8,0.2-7.6,0.3-11.4,0.5c0.2,0.4,0.4,0.8,0.4,1.3c0,2-1.8,3.3-5.5,3.3
		c-4,0-8-1.3-10.5-2.5l-2,8.9c2.3,1.2,7,2.5,11.9,2.5c11.8,0,17.3-5.9,17.3-12.9C188.3,28.4,188.2,28.1,188.2,27.7z"/>
	<path d="M206.7,27v14.2h10.9V26.6C213.9,26.7,210.3,26.8,206.7,27z M230.7,0.7v14.9h-13.1V0.7h-10.9V24c11.6-0.6,23.2-1.1,34.8-1.6
		V0.7H230.7z M230.7,26.1v15h10.8V25.8C237.9,25.9,234.3,26,230.7,26.1z"/>
	<path d="M284.9,0.7H278c-4.5,0-8.4,2.9-9.6,7.2l-3.9,13.6c1.4-0.1,2.9-0.1,4.3-0.2c2.1-0.1,4.2-0.2,6.3-0.2l2.7-10.6h0.1
		c0.2,0.9,1.3,5.2,2.5,10.4c3.5-0.1,7-0.2,10.4-0.4L284.9,0.7z M292,24.5c-3.6,0.1-7.1,0.2-10.7,0.2c1.9,8,4,16.4,4,16.4h11.7
		L292,24.5z M268.8,25c-1.8,0-3.7,0.1-5.5,0.1l-4.6,15.9h11.2l4.1-16.2C272.3,24.9,270.6,25,268.8,25z"/>
	<path d="M340.1,23.6c0.1,1.2,0.2,2.4,0.3,3.6h-0.2c-0.4-1.2-0.9-2.4-1.4-3.6c-3.2,0-6.4,0.1-9.6,0.1c0.7,1.3,1.3,2.6,2,3.9
		l6.8,13.4h11.4V23.5C346.3,23.6,343.2,23.6,340.1,23.6z M339.6,0.7v9.5c0,3,0.1,6,0.2,8.8c3.2-0.1,6.5-0.2,9.7-0.2V0.7H339.6z
		 M327.1,19.3c3.2-0.1,6.5-0.2,9.7-0.3c-1-2.2-2-4.2-3-6l-6.4-12.4h-12.8v19c3.2-0.1,6.5-0.2,9.8-0.3c-0.1-2.2-0.1-4.4-0.2-6.4h0.2
		C325.2,15.1,326.1,17.2,327.1,19.3z M324.5,23.9c-3.3,0.1-6.6,0.1-9.8,0.2v17.1h9.9v-10C324.6,28.7,324.6,26.2,324.5,23.9z"/>
	<path d="M56.5,58.7c-2-1.4-4.4-2-8.3-2c-2.4,0-4.7,0.1-6.5,0.4V77c1,0.2,2.8,0.3,5.4,0.3c4,0,7.3-0.8,9.5-2.5
		c2-1.5,3.5-4.2,3.5-8.3C60.1,62.8,58.7,60.3,56.5,58.7z M48.3,73.1c-0.4,0-0.9,0-1.1-0.1V61c0.3-0.1,0.8-0.1,1.7-0.1
		c3.2,0,5.6,1.9,5.6,5.8C54.4,71.2,51.8,73.2,48.3,73.1z"/>
	<path d="M74.7,72.7v-3.7H82v-4.4h-7.3v-3.3h7.7v-4.4H69.3v20.2h13.6v-4.4H74.7z"/>
	<path d="M104.5,56.9l-2.2,8c-0.6,2.2-1.2,4.5-1.7,7h-0.1c-0.5-2.6-1-4.8-1.7-7.1l-2.1-8h-5.9l6.4,20.2h6.4l6.6-20.2H104.5z"/>
	<path d="M124.2,72.7v-3.7h7.3v-4.4h-7.3v-3.3h7.7v-4.4h-13.1v20.2h13.6v-4.4H124.2z"/>
	<path d="M147.1,72.6V56.9h-5.4v20.2h13.2v-4.5H147.1z"/>
	<path d="M171.8,56.6c-6.2,0-10,4.7-10,10.6c0,5.6,3.4,10.3,9.7,10.3c6.2,0,10.1-4.1,10.1-10.6C181.7,61.4,178.4,56.6,171.8,56.6z
		 M171.8,73.1c-2.6,0-4.3-2.3-4.3-6.1c0-3.7,1.7-6.2,4.2-6.2c2.6,0,4.2,2.6,4.2,6.1C175.9,70.6,174.4,73.1,171.8,73.1z"/>
	<path d="M203.9,58.3c-1.4-1.1-3.5-1.6-6.4-1.6c-3.1,0-5.2,0.2-6.7,0.4v20h5.4v-6.9c0.3,0,0.8,0.1,1.3,0.1c2.7,0,5.1-0.6,6.8-2.1
		c1.3-1.1,2-2.9,2-5C206.2,61.1,205.3,59.3,203.9,58.3z M197.4,66.2c-0.6,0-0.9,0-1.2-0.1v-5.2c0.3-0.1,0.8-0.1,1.6-0.1
		c2,0,3.1,1,3.1,2.5C200.9,65.1,199.6,66.2,197.4,66.2z"/>
	<path d="M236.3,56.9h-7.1l-1.5,5.4c-0.6,2.1-1.3,5-1.8,7.4h-0.1c-0.4-2.5-1-5.2-1.6-7.4l-1.3-5.4h-7.3l-1.2,20.2h5l0.3-7.2
		c0.1-2.3,0.2-5.3,0.3-8.2h0.1c0.5,2.8,1.1,5.8,1.6,8l1.7,7h4.2l2-7c0.7-2.2,1.5-5.2,2.1-7.9h0.1c0,3.2,0,5.8,0.1,8.2l0.2,7.2h5.3
		L236.3,56.9z"/>
	<path d="M252.4,72.7v-3.7h7.3v-4.4h-7.3v-3.3h7.7v-4.4H247v20.2h13.6v-4.4H252.4z"/>
	<path d="M282.3,56.9v4.8c0,3,0.1,5.8,0.4,8.5h-0.1c-0.9-2.4-2.1-5.1-3.2-7.1l-3.2-6.2h-6.4v20.2h4.9v-5c0-3.3-0.1-6.3-0.2-9.1h0.1
		c1,2.5,2.3,5.2,3.4,7.3l3.4,6.7h5.7V56.9H282.3z"/>
	<path d="M296.1,56.9v4.5h5.2v15.7h5.4V61.4h5.2v-4.5H296.1z"/>
</g>
</svg>
