<?xml version="1.0"?>
<svg fill="#bf2742" xmlns="http://www.w3.org/2000/svg" id="Outline" viewBox="0 0 512 512" width="512" height="512"><path d="M488,344H464V112a24.027,24.027,0,0,0-24-24H72a24.027,24.027,0,0,0-24,24V344H24a8,8,0,0,0-8,8v32a40.045,40.045,0,0,0,40,40H456a40.045,40.045,0,0,0,40-40V352A8,8,0,0,0,488,344ZM64,112a8.009,8.009,0,0,1,8-8H440a8.009,8.009,0,0,1,8,8V344H432V128a8,8,0,0,0-8-8H88a8,8,0,0,0-8,8V344H64ZM96,344V168H416V344H96Zm195.056,16-5.789,11.577A7.956,7.956,0,0,1,278.111,376H233.889a7.956,7.956,0,0,1-7.156-4.423L220.944,360ZM416,152H96V136H416Zm64,232a24.028,24.028,0,0,1-24,24H56a24.028,24.028,0,0,1-24-24V360H203.056l9.366,18.733A23.87,23.87,0,0,0,233.889,392h44.222a23.87,23.87,0,0,0,21.467-13.267L308.944,360H480Z"/><path d="M264,216h80a8,8,0,0,0,0-16H264a8,8,0,0,0,0,16Z"/><path d="M320,240a8,8,0,0,0-8-8H264a8,8,0,0,0,0,16h48A8,8,0,0,0,320,240Z"/><circle cx="120" cy="144" r="8"/><circle cx="152" cy="144" r="8"/><circle cx="184" cy="144" r="8"/><path d="M397.657,309.657a8,8,0,0,0-3.127-13.247l-10.969-3.656A26.748,26.748,0,0,0,384,288c0-13.233-9.741-24-21.714-24H293.714C281.741,264,272,274.767,272,288s9.741,24,21.714,24h49.853l8.844,26.53a8,8,0,0,0,13.246,3.127ZM346.53,280.41a8,8,0,0,0-10.119,10.12l1.823,5.47h-44.52c-3.1,0-5.714-3.663-5.714-8s2.617-8,5.714-8h68.572c2.992,0,5.528,3.42,5.7,7.562Zm10.119,20.239L377.19,307.5,363.5,321.19Z"/><path d="M376,216h16a8,8,0,0,0,0-16H376a8,8,0,0,0,0,16Z"/><path d="M392,232H344a8,8,0,0,0,0,16h48a8,8,0,0,0,0-16Z"/><path d="M239.972,319.336l-8-96A8,8,0,0,0,224,216h-8v-8a23.984,23.984,0,0,0-40-17.869A23.984,23.984,0,0,0,136,208v8h-8a8,8,0,0,0-7.972,7.336l-8,96A8,8,0,0,0,120,328H232a8,8,0,0,0,7.972-8.664ZM192,200a8.009,8.009,0,0,1,8,8v8H184v-8A8.009,8.009,0,0,1,192,200Zm-40,8a8,8,0,0,1,16,0v8H152ZM128.694,312l6.667-80h49.278l6.667,80Zm78.667,0-6.667-80h15.945l6.667,80Z"/></svg>
